<?xml version="1.0" encoding="UTF-8" standalone="no"?>
<svg
   version="1.0"
   width="796.000000pt"
   height="320.000000pt"
   viewBox="0 0 796.000000 320.000000"
   preserveAspectRatio="xMidYMid meet"
   id="svg8"
   sodipodi:docname="LOGO_pyspark.svg"
   inkscape:version="1.4.2 (f4327f4, 2025-05-13)"
   xmlns:inkscape="http://www.inkscape.org/namespaces/inkscape"
   xmlns:sodipodi="http://sodipodi.sourceforge.net/DTD/sodipodi-0.dtd"
   xmlns:xlink="http://www.w3.org/1999/xlink"
   xmlns="http://www.w3.org/2000/svg"
   xmlns:svg="http://www.w3.org/2000/svg">
  <defs
     id="defs8">
    <linearGradient
       id="linearGradient12"
       inkscape:collect="always">
      <stop
         style="stop-color:#000000;stop-opacity:1;"
         offset="0"
         id="stop12" />
      <stop
         style="stop-color:#000000;stop-opacity:0;"
         offset="1"
         id="stop13" />
    </linearGradient>
    <linearGradient
       inkscape:collect="always"
       xlink:href="#linearGradient12"
       id="linearGradient13"
       x1="768.61169"
       y1="118.43708"
       x2="1060.2806"
       y2="118.43708"
       gradientUnits="userSpaceOnUse" />
  </defs>
  <sodipodi:namedview
     id="namedview8"
     pagecolor="#ffffff"
     bordercolor="#000000"
     borderopacity="0.25"
     inkscape:showpageshadow="2"
     inkscape:pageopacity="0.0"
     inkscape:pagecheckerboard="0"
     inkscape:deskcolor="#d1d1d1"
     inkscape:document-units="pt"
     inkscape:zoom="0.8352701"
     inkscape:cx="304.69186"
     inkscape:cy="417.23031"
     inkscape:window-width="1920"
     inkscape:window-height="991"
     inkscape:window-x="-9"
     inkscape:window-y="-9"
     inkscape:window-maximized="1"
     inkscape:current-layer="svg8" />
  <g
     transform="translate(0.000000,320.000000) scale(0.100000,-0.100000)"
     fill="#000000"
     stroke="none"
     id="g8">
    <path
       d="M6675 3181 c-83 -51 -103 -101 -155 -386 -23 -126 -47 -244 -55 -261 -10 -23 -25 -36 -57 -47 -49 -17 -320 -100 -421 -128 -183 -52 -265 -142 -222 -245 32 -78 74 -107 276 -194 103 -44 195 -80 203 -80 20 0 267 155 266 167 -1 4 -85 40 -188 79 -111 42 -188 76 -190 85 -2 10 51 30 195 73 109 33 226 68 259 78 36 11 65 26 69 36 5 9 29 125 54 256 25 132 51 241 57 243 6 2 62 -79 124 -179 120 -195 139 -218 175 -218 12 0 126 27 253 60 231 60 262 66 262 53 0 -5 -79 -97 -175 -206 -135 -153 -175 -204 -175 -225 0 -16 44 -107 105 -217 97 -174 116 -223 88 -218 -5 1 -82 21 -171 44 -88 23 -167 39 -176 36 -13 -5 -15 -15 -10 -49 10 -64 34 -181 39 -186 6 -7 182 -58 334 -98 158 -42 201 -41 257 8 46 41 64 77 64 133 0 48 -45 142 -194 408 -36 65 -66 126 -66 135 0 10 96 127 213 261 116 133 220 257 230 274 29 52 23 103 -17 143 -31 31 -39 34 -93 34 -39 0 -149 -23 -333 -70 -265 -68 -323 -78 -346 -62 -6 4 -33 43 -59 87 -83 138 -196 309 -223 338 -15 16 -39 35 -54 43 -38 20 -107 18 -143 -5z"
       id="path1" />
    <path
       d="M2625 1970 c-219 -44 -393 -216 -403 -401 -8 -133 37 -210 248 -424 75 -77 147 -160 160 -184 54 -107 -22 -213 -164 -228 -75 -8 -139 23 -175 84 -14 25 -35 56 -47 70 l-20 26 -120 -64 c-136 -73 -140 -79 -99 -160 64 -126 165 -192 324 -211 115 -13 213 5 327 61 137 68 216 154 254 279 35 113 20 232 -42 341 -18 32 -97 122 -184 212 -195 200 -210 227 -157 290 69 82 170 78 266 -10 59 -55 92 -55 166 0 135 100 140 119 53 201 -111 106 -243 147 -387 118z"
       id="path2" />
    <path
       d="M16 1918 c-14 -20 -16 -104 -16 -714 l0 -693 27 -21 c25 -20 35 -21 128 -15 55 4 105 12 110 17 6 5 10 102 10 249 0 188 3 241 13 248 7 4 70 11 140 14 70 4 150 13 177 20 156 43 264 150 300 297 25 101 17 291 -15 374 -28 73 -96 148 -163 183 -105 53 -178 63 -448 63 -245 0 -248 0 -263 -22z m519 -245 c75 -39 115 -104 115 -189 0 -99 -52 -187 -130 -218 -52 -21 -229 -24 -241 -5 -5 8 -9 103 -9 211 0 243 -6 232 129 226 70 -4 107 -10 136 -25z"
       id="path3" />
    <path
       d="M6465 1855 c-140 -90 -145 -93 -160 -128 -8 -18 -46 -268 -85 -557 -39 -289 -74 -550 -79 -580 -5 -30 -6 -60 -4 -67 4 -10 35 -13 118 -13 93 0 117 3 135 18 23 19 26 32 71 375 14 109 26 166 33 164 13 -4 206 -280 277 -397 66 -108 84 -128 137 -152 39 -17 57 -19 168 -12 91 5 124 10 124 20 0 7 -108 157 -240 333 -160 214 -240 329 -240 345 0 18 30 53 121 138 167 157 186 200 153 339 -14 60 -23 79 -36 79 -9 0 -18 -4 -20 -9 -8 -20 -393 -421 -405 -421 -10 0 -12 11 -8 38 29 191 72 538 68 544 -8 15 -29 6 -128 -57z"
       id="path4" />
    <path
       d="M3585 1586 c-210 -40 -396 -179 -487 -362 -47 -96 -63 -182 -129 -686 -35 -270 -40 -329 -30 -342 19 -23 193 -23 215 -1 17 17 17 19 42 215 9 74 23 141 30 149 10 12 18 10 46 -7 71 -43 157 -65 263 -65 117 -1 198 18 300 68 305 149 450 506 315 775 -99 195 -332 301 -565 256z m167 -246 c62 -18 128 -71 162 -130 27 -48 31 -65 31 -130 0 -66 -5 -85 -33 -143 -40 -81 -122 -158 -202 -189 -78 -30 -198 -30 -261 0 -250 122 -197 471 89 583 53 20 156 25 214 9z"
       id="path5" />
    <path
       d="M1000 1575 c-10 -12 23 -111 184 -546 108 -292 196 -545 196 -563 0 -131 -116 -245 -250 -246 -80 0 -84 -5 -88 -103 -5 -114 0 -117 163 -117 145 0 192 18 271 101 91 97 76 60 410 1038 80 233 143 430 140 437 -4 11 -33 14 -125 14 -99 0 -122 -3 -140 -17 -20 -17 -32 -55 -158 -473 -19 -63 -43 -154 -54 -201 -11 -48 -26 -95 -33 -104 -11 -15 -14 -8 -24 51 -10 60 -65 253 -173 607 -42 137 -42 137 -188 137 -93 0 -121 -3 -131 -15z"
       id="path6" />
    <path
       d="M4805 1574 c-33 -8 -98 -33 -145 -56 -68 -34 -102 -60 -170 -128 -127 -126 -190 -268 -190 -425 0 -342 338 -564 692 -455 36 11 70 26 76 33 8 10 42 231 42 275 0 8 -19 0 -45 -18 -82 -56 -132 -73 -220 -74 -68 -1 -88 3 -137 27 -102 50 -153 132 -153 247 0 95 24 149 100 229 73 76 152 114 253 119 92 5 150 -11 202 -55 98 -84 116 -185 80 -453 -13 -91 -25 -195 -27 -231 -5 -61 -3 -68 18 -83 33 -22 181 -23 203 0 9 8 16 19 16 23 0 4 16 121 35 260 39 282 41 328 20 420 -40 168 -174 299 -351 345 -76 20 -217 20 -299 0z"
       id="path7" />
    <path
       d="M5880 1554 c-137 -37 -231 -137 -259 -274 -9 -44 -46 -310 -96 -696 -9 -66 7 -75 128 -72 122 4 119 1 137 153 23 208 82 569 96 596 20 39 40 48 139 58 47 5 88 11 90 13 3 2 11 51 19 108 10 74 12 108 4 117 -15 18 -188 16 -258 -3z"
       id="path8" />
  </g>
  <path
     style="fill:#ff6600;stroke-width:1.19722"
     d="m 994.28915,232.75011 c -20.74924,-5.45101 -44.88082,-12.61835 -45.93004,-13.64169 -1.30396,-1.27182 -5.44004,-20.85601 -5.50312,-26.05709 -0.0364,-2.99812 0.45866,-3.89096 2.15726,-3.89096 1.21244,0 12.06463,2.43692 24.11597,5.4154 12.05133,2.97847 22.15493,5.17198 22.45244,4.87448 1.3944,-1.3944 -1.7587,-8.90162 -10.64112,-25.33553 -13.89725,-25.71209 -16.84468,-32.50932 -15.32671,-35.34566 1.3707,-2.5612 11.91024,-15.24892 32.12043,-38.66728 7.32374,-8.48634 13.31594,-15.894123 13.31594,-16.46174 0,-2.063598 -6.456,-0.886326 -37.78007,6.889367 l -31.91109,7.921399 -3.16608,-2.342902 c -1.74134,-1.288595 -9.0923,-11.557296 -16.33547,-22.819333 -14.88911,-23.150333 -18.17823,-27.794305 -19.6855,-27.794305 -1.22045,0 -5.75532,18.575857 -10.22956,41.902613 -4.45165,23.209041 -4.99462,24.872871 -8.7392,26.779861 -1.78659,0.90986 -14.29268,4.98303 -27.79131,9.05149 -30.88466,9.30859 -38.31096,11.99748 -38.31096,13.87152 0,1.50216 7.36104,4.85121 34.42,15.66006 8.06626,3.22211 14.66592,6.21 14.66592,6.63975 0,0.80475 -17.77458,12.50516 -27.80079,18.30032 l -5.65226,3.26703 -14.10183,-5.68368 c -33.33355,-13.43495 -43.87337,-19.63992 -48.06365,-28.29588 -4.7566,-9.82584 -2.49957,-17.83437 6.95679,-24.68453 6.53798,-4.73609 13.18927,-7.23349 43.16747,-16.20834 36.94018,-11.059124 38.52096,-11.669034 40.88465,-15.774423 1.11522,-1.936983 4.72197,-17.263048 8.01499,-34.057925 3.29302,-16.794876 7.15756,-33.663903 8.58786,-37.486725 2.71416,-7.254233 8.87664,-14.5292869 13.93707,-16.4532611 4.37035,-1.66159977 13.2348,-1.36627909 16.92968,0.5640146 6.06703,3.1695663 13.72509,13.6450165 34.87733,47.7086855 6.31929,10.176625 9.54986,14.282231 11.65372,14.810264 3.60669,0.905222 11.8999,-0.67264 38.71124,-7.365185 33.27455,-8.305858 43.22155,-10.339982 50.69125,-10.366161 6.0245,-0.02111 7.4713,0.4339 10.448,3.285734 5.398,5.171575 6.5383,10.132115 3.7556,16.336312 -1.267,2.824717 -13.8276,18.622832 -27.9125,35.10692 -34.64331,40.54456 -32.68765,37.76313 -30.4005,43.23712 1.0213,2.44428 7.0729,13.90979 13.448,25.47887 19.5236,35.42987 22.1745,43.53549 17.2611,52.77963 -1.2195,2.29437 -4.4939,5.92252 -7.2764,8.06254 -4.3745,3.36444 -5.9781,3.88326 -11.8501,3.83406 -3.735,-0.0313 -11.909,-1.40146 -18.16445,-3.04484 z"
     id="path9"
     transform="scale(0.75)" />
  <path
     style="fill:#ff6600;stroke-width:1.19722"
     d="m 144.57922,424.95131 c -2.61255,-0.8068 -4.11952,-2.16815 -4.62369,-4.17693 -1.07865,-4.29767 -0.0297,-19.43815 1.44913,-20.917 0.68993,-0.68994 5.25224,-1.72141 10.13846,-2.29216 10.43883,-1.21937 11.99118,-1.74669 18.87256,-6.41087 6.23749,-4.22775 11.44325,-12.03864 13.36645,-20.05542 1.32197,-5.5106 1.13191,-6.71673 -3.05393,-19.38064 -2.455,-7.42738 -12.66969,-36.13175 -22.69931,-63.78748 -24.0665,-66.36111 -25.26227,-70.0409 -23.1873,-71.35533 2.26954,-1.43769 27.71252,-1.34634 31.55161,0.11328 1.91302,0.72732 3.86113,2.93718 5.0132,5.68678 4.37075,10.43148 25.92949,84.52055 27.34945,93.98952 0.51676,3.446 1.46883,5.68645 2.41641,5.68645 1.77876,0 3.93029,-6.10474 8.25271,-23.4162 3.44892,-13.81307 18.69276,-64.41038 22.3518,-74.19006 1.35023,-3.60879 3.4575,-7.09799 4.68283,-7.75377 1.22534,-0.65578 8.74518,-1.19233 16.71077,-1.19233 11.33478,0 14.62322,0.36568 15.12845,1.68228 0.91933,2.39574 -2.15824,12.19206 -23.73078,75.53825 -23.40692,68.73273 -33.64414,97.22973 -38.0988,106.05436 -4.33331,8.58424 -16.4613,20.94314 -23.69785,24.14904 -4.40575,1.95181 -8.61298,2.55269 -19.94981,2.84928 -7.90163,0.20671 -16.11069,-0.16276 -18.24236,-0.82105 z"
     id="path10"
     transform="scale(0.75)" />
  <path
     style="fill:#ff6600;stroke-width:1.19722"
     d="m 3.8909569,360.413 -3.29234814,-2.61875 0.0874006,-87.01068 C 0.73407967,222.9277 1.18226,180.89755 1.6819656,177.38324 c 0.4997056,-3.51431 1.672558,-6.87324 2.6063389,-7.46428 2.8565167,-1.80805 61.4280205,-1.26433 72.2909545,0.67108 12.757584,2.27297 25.342241,8.56357 31.815421,15.90334 10.12553,11.48107 13.1229,21.51714 13.1229,43.93934 0,20.82013 -3.70129,31.74252 -14.69618,43.368 -11.807476,12.48466 -22.189331,16.37503 -49.125401,18.40865 -10.003302,0.75523 -18.779886,1.85087 -19.50352,2.43477 -0.865012,0.69798 -1.542723,11.97255 -1.978459,32.91414 -0.395375,19.00194 -1.152391,32.34215 -1.876402,33.06616 -0.667503,0.66751 -7.050293,1.48221 -14.183978,1.81047 C 8.1279127,362.98827 6.9435289,362.84101 3.8909569,360.413 Z M 69.609313,258.54482 c 9.762376,-3.68102 17.158765,-16.17542 17.177262,-29.01681 0.01844,-12.80128 -4.591561,-20.91709 -14.953524,-26.32537 -6.8758,-3.58872 -31.507271,-4.61896 -34.158678,-1.42871 -1.355241,1.63066 -1.850805,6.80362 -2.16372,22.58607 -0.223229,11.25904 -0.04912,23.80585 0.386908,27.88181 0.674322,6.30348 1.182194,7.49889 3.398917,8.00022 4.228108,0.95623 26.597272,-0.29621 30.312835,-1.69721 z"
     id="path11"
     transform="scale(0.75)" />
  <path
     style="fill:#e57825;stroke-width:1.19722;stroke:url(#linearGradient13);stroke-opacity:1;fill-opacity:1"
     d="m 988.90167,230.49227 c -24.03411,-6.29084 -39.19565,-11.12523 -40.25894,-12.8369 -1.38325,-2.22677 -3.5211,-12.37283 -4.30131,-20.41378 -0.61656,-6.35422 -0.47954,-6.884 1.78049,-6.884 1.34665,0 11.523,2.14923 22.61411,4.77607 11.0911,2.62685 20.83909,4.78184 21.66218,4.78887 3.4613,0.0296 0.77164,-7.25309 -11.67288,-31.6062 -7.24316,-14.17439 -13.16939,-26.51161 -13.16939,-27.41603 0,-0.90441 10.2163,-13.71672 22.70289,-28.47181 12.48658,-14.755092 22.72278,-27.500872 22.74708,-28.323959 0.082,-2.764327 -7.4506,-1.571396 -38.56211,6.107229 -27.57485,6.805742 -31.06452,7.424193 -33.25083,5.89284 -1.34347,-0.941001 -9.73044,-12.713281 -18.63772,-26.160623 -8.90727,-13.447341 -16.94687,-24.449711 -17.86577,-24.449711 -2.12611,0 -3.00271,3.127771 -10.13276,36.154097 -3.22676,14.94623 -6.41661,28.202277 -7.08859,29.457877 -0.83392,1.55819 -6.08368,3.82366 -16.5369,7.13631 -8.42332,2.66936 -23.30292,7.39014 -33.06578,10.49062 -16.8698,5.35752 -20.66426,7.52595 -17.93869,10.25152 0.62906,0.62906 9.45525,4.56104 19.61376,8.73775 10.15851,4.17671 20.56565,8.47854 23.12699,9.55962 l 4.65697,1.96558 -4.65697,3.32832 c -9.04387,6.46364 -26.48764,17.00667 -28.13803,17.00667 -2.15013,0 -32.9796,-12.86185 -42.3659,-17.67478 -9.88511,-5.06869 -15.0856,-9.17178 -18.25031,-14.39918 -5.41979,-8.95228 -2.58546,-18.63955 7.49143,-25.60449 4.44093,-3.06947 22.88484,-9.48755 61.18142,-21.2898 8.63678,-2.661689 17.05267,-5.9009 18.70199,-7.198249 3.47513,-2.733545 4.3154,-5.723898 12.28817,-43.731604 8.3107,-39.61872 13.03147,-47.290092 29.1011,-47.290092 h 7.61894 l 6.18199,6.4796983 c 3.40008,3.5638337 13.08677,17.2656137 21.52596,30.4483987 8.43918,13.182786 16.12927,24.620438 17.08908,25.417007 2.8107,2.332667 14.24769,0.589235 43.59025,-6.644803 31.54891,-7.777979 46.98331,-10.642368 52.13621,-9.67567 7.9547,1.4923 13.2686,11.380671 9.7591,18.159999 -2.327,4.494898 -13.9748,19.009334 -36.858,45.929155 -10.149,11.93917 -19.5301,23.57532 -20.8471,25.85811 l -2.39439,4.15053 8.73079,16.43775 c 26.0148,48.97906 28.6269,56.41186 23.0154,65.49146 -6.9961,11.31994 -16.0915,12.65071 -41.32393,6.0462 z"
     id="path12"
     transform="scale(0.75)" />
  <path
     style="fill:#e57825;fill-opacity:1;stroke:#000000;stroke-width:1.19722;stroke-opacity:1"
     d="m 143.3668,423.22242 c -2.39548,-1.72309 -2.69171,-2.95747 -2.67541,-11.14817 0.0101,-5.06581 0.45085,-9.89194 0.97949,-10.72475 0.52863,-0.83279 5.36945,-2.28923 10.75737,-3.23653 5.38792,-0.94729 11.69068,-2.62132 14.00614,-3.72008 9.20131,-4.3663 18.53572,-18.69436 18.53572,-28.45181 0,-4.27929 -3.58517,-14.94717 -24.80878,-73.82 -18.16705,-50.39414 -25.47436,-71.58433 -25.47436,-73.87211 0,-1.19237 3.61111,-1.5526 15.56383,-1.5526 13.81473,0 15.82522,0.26139 17.88975,2.32593 3.36859,3.36859 21.10019,60.30481 28.73255,92.2603 2.59768,10.87607 2.8305,11.34372 5.19561,10.43614 1.66296,-0.63814 2.40208,-2.92192 12.29124,-37.97819 8.04056,-28.50314 17.14083,-57.24662 19.73336,-62.32838 2.2265,-4.36431 2.30043,-4.39727 11.13564,-4.96428 13.89469,-0.89171 22.34917,0.10647 22.34917,2.63865 0,6.2548 -52.83734,160.27545 -60.73182,177.03301 -3.63459,7.71514 -16.86461,22.09793 -23.60802,25.66509 -4.12015,2.1795 -7.29318,2.62811 -21.01531,2.97124 -13.43316,0.33591 -16.61731,0.077 -18.85617,-1.53346 z"
     id="path13"
     transform="scale(0.75)" />
  <path
     style="fill:#e57825;fill-opacity:1;stroke:#000000;stroke-width:1.19722;stroke-opacity:1"
     d="M 3.5916526,359.48434 C 1.2312282,357.39947 1.2024576,356.10253 1.5661363,268.17673 1.7749746,217.68635 2.423568,177.11315 3.0608735,174.67245 l 1.1258183,-4.31156 13.4704812,-0.64104 c 22.733444,-1.08183 59.044092,0.89182 66.804252,3.63113 19.555515,6.90303 29.750455,16.84529 34.024155,33.18088 2.2261,8.50897 2.60432,34.31196 0.63192,43.11313 -4.01734,17.9262 -20.646657,34.6946 -38.511733,38.83384 -2.849585,0.66023 -13.262281,2.0526 -23.139326,3.09416 -9.877044,1.04157 -18.590881,2.53379 -19.364081,3.31605 -0.941205,0.95223 -1.784331,11.82752 -2.55111,32.90616 -0.62991,17.31612 -1.52228,31.86232 -1.983045,32.32487 -0.460766,0.46256 -6.855236,0.98461 -14.209936,1.1601 -11.3760514,0.27145 -13.7296103,0.003 -15.7666164,-1.79583 z M 72.204495,258.11785 c 9.570218,-4.94895 15.083435,-17.07583 14.417564,-31.71289 -0.349387,-7.68016 -0.986838,-10.13797 -3.687937,-14.21952 -5.078701,-7.67426 -12.180866,-11.18017 -24.618342,-12.15259 -10.325611,-0.8073 -19.801413,-0.0992 -21.512818,1.60763 -1.503427,1.4994 -1.802055,52.37717 -0.330153,56.24857 l 1.316435,3.46249 15.405964,-0.68517 c 10.438352,-0.46424 16.567847,-1.286 19.009287,-2.54852 z"
     id="path14"
     transform="scale(0.75)" />
</svg>
