<?xml version="1.0" encoding="UTF-8" standalone="no"?>
<svg
   role="img"
   viewBox="0 0 24 24"
   version="1.1"
   id="svg1"
   sodipodi:docname="LOGO_scikitlearn.svg"
   inkscape:version="1.4.2 (f4327f4, 2025-05-13)"
   xmlns:inkscape="http://www.inkscape.org/namespaces/inkscape"
   xmlns:sodipodi="http://sodipodi.sourceforge.net/DTD/sodipodi-0.dtd"
   xmlns="http://www.w3.org/2000/svg"
   xmlns:svg="http://www.w3.org/2000/svg">
  <defs
     id="defs1" />
  <sodipodi:namedview
     id="namedview1"
     pagecolor="#ffffff"
     bordercolor="#000000"
     borderopacity="0.25"
     inkscape:showpageshadow="2"
     inkscape:pageopacity="0.0"
     inkscape:pagecheckerboard="0"
     inkscape:deskcolor="#d1d1d1"
     inkscape:zoom="32"
     inkscape:cx="16.546875"
     inkscape:cy="16.078125"
     inkscape:window-width="1920"
     inkscape:window-height="991"
     inkscape:window-x="-9"
     inkscape:window-y="-9"
     inkscape:window-maximized="1"
     inkscape:current-layer="svg1" />
  <title
     id="title1">scikit-learn</title>
  <path
     d="M15.601 5.53c-1.91.035-3.981.91-5.63 2.56-2.93 2.93-2.083 8.53-1.088 9.525.805.804 6.595 1.843 9.526-1.088a9.74 9.74 0 0 0 .584-.643c.043-.292.205-.66.489-1.106a1.848 1.848 0 0 1-.537.176c-.144.265-.37.55-.676.855-.354.335-.607.554-.76.656a.795.795 0 0 1-.437.152c-.35 0-.514-.308-.494-.924-.22.316-.425.549-.612.7a.914.914 0 0 1-.578.224c-.194 0-.36-.09-.496-.273a1.03 1.03 0 0 1-.193-.507 4.016 4.016 0 0 1-.726.583c-.224.132-.47.197-.74.197-.3 0-.543-.096-.727-.288a.978.978 0 0 1-.257-.524v.004c-.3.276-.564.48-.79.611a1.295 1.295 0 0 1-.649.197.693.693 0 0 1-.571-.275c-.145-.183-.218-.43-.218-.739 0-.464.101-1.02.302-1.67.201-.65.445-1.25.733-1.797l.842-.312a.21.21 0 0 1 .06-.013c.063 0 .116.047.157.14.04.095.061.221.061.38 0 .451-.104.888-.312 1.31-.207.422-.532.873-.974 1.352-.018.23-.027.388-.027.474 0 .193.036.345.106.458.071.113.165.169.282.169a.71.71 0 0 0 .382-.13c.132-.084.333-.26.602-.523.028-.418.187-.798.482-1.142.324-.38.685-.569 1.08-.569.206 0 .37.054.494.16a.524.524 0 0 1 .186.417c0 .458-.486.829-1.459 1.114.088.43.32.646.693.646a.807.807 0 0 0 .417-.117c.129-.076.321-.243.575-.497.032-.252.118-.495.259-.728.182-.3.416-.544.701-.73.285-.185.537-.278.756-.278.276 0 .47.127.58.381l.677-.374h.186l-.292.971c-.15.488-.226.823-.226 1.004 0 .19.067.285.202.285.086 0 .181-.045.285-.137.104-.092.25-.232.437-.42v.001c.143-.155.274-.32.392-.494-.19-.084-.285-.21-.285-.375 0-.17.058-.352.174-.545.116-.194.275-.29.479-.29.172 0 .258.088.258.265 0 .139-.05.338-.149.596.367-.04.687-.32.961-.842l.228-.01c1.059-2.438.828-5.075-.83-6.732-1.019-1.02-2.408-1.5-3.895-1.471zm4.725 8.203a8.938 8.938 0 0 1-1.333 2.151 1.09 1.09 0 0 0-.012.147c0 .168.047.309.14.423.092.113.206.17.34.17.296 0 .714-.264 1.254-.787-.001.04-.003.08-.003.121 0 .146.012.368.036.666l.733-.172c0-.2.003-.357.01-.474.01-.157.033-.33.066-.517.02-.11.07-.216.152-.315l.186-.216a5.276 5.276 0 0 1 .378-.397c.062-.055.116-.099.162-.13a.26.26 0 0 1 .123-.046c.055 0 .083.035.083.106 0 .07-.052.236-.156.497-.194.486-.292.848-.292 1.084 0 .175.046.314.136.418a.45.45 0 0 0 .358.155c.365 0 .803-.269 1.313-.808v-.381c-.361.426-.623.64-.784.64-.109 0-.163-.067-.163-.2 0-.1.065-.316.195-.65.19-.486.285-.836.285-1.048a.464.464 0 0 0-.112-.319.36.36 0 0 0-.282-.127c-.165 0-.354.077-.567.233-.213.156-.5.436-.863.84.053-.262.165-.622.335-1.08l-.809.156a6.54 6.54 0 0 0-.399 1.074c-.04.156-.07.316-.092.48a7.447 7.447 0 0 1-.49.45.38.38 0 0 1-.229.08.208.208 0 0 1-.174-.082.352.352 0 0 1-.064-.222c0-.1.019-.214.056-.343.038-.13.12-.373.249-.731l.308-.849zm-17.21-2.927c-.863-.016-1.67.263-2.261.854-1.352 1.352-1.07 3.827.631 5.527 1.7 1.701 4.95 1.21 5.527.632.467-.466 1.07-3.827-.631-5.527-.957-.957-2.158-1.465-3.267-1.486zm12.285.358h.166v.21H15.4zm.427 0h.166v.865l.46-.455h.195l-.364.362.428.684h-.198l-.357-.575-.164.166v.41h-.166zm1.016 0h.166v.21h-.166zm.481.122h.166v.288h.172v.135h-.172v.717c0 .037.006.062.02.075.012.013.037.02.074.02a.23.23 0 0 0 .078-.01v.141a.802.802 0 0 1-.136.014.23.23 0 0 1-.15-.043.15.15 0 0 1-.052-.123v-.79h-.141v-.136h.141zm-3.562.258c.081 0 .15.012.207.038.057.024.1.061.13.11s.045.106.045.173h-.176c-.006-.111-.075-.167-.208-.167a.285.285 0 0 0-.164.041.134.134 0 0 0-.06.117c0 .035.015.065.045.088.03.024.08.044.15.06l.16.039a.47.47 0 0 1 .224.105c.047.046.07.108.07.186a.3.3 0 0 1-.052.175.327.327 0 0 1-.152.116.585.585 0 0 1-.226.041c-.136 0-.24-.03-.309-.088-.069-.059-.105-.149-.109-.269h.176c.004.037.01.065.017.084a.166.166 0 0 0 .034.054c.044.043.112.065.204.065a.31.31 0 0 0 .177-.045.139.139 0 0 0 .067-.119.116.116 0 0 0-.038-.09.287.287 0 0 0-.124-.055l-.156-.038a1.248 1.248 0 0 1-.159-.05.359.359 0 0 1-.098-.061.22.22 0 0 1-.058-.083.32.32 0 0 1-.016-.108c0-.096.036-.174.109-.232a.45.45 0 0 1 .29-.087zm1.035 0a.46.46 0 0 1 .202.043.351.351 0 0 1 .187.212.577.577 0 0 1 .023.126h-.168a.256.256 0 0 0-.078-.168.242.242 0 0 0-.17-.06.248.248 0 0 0-.155.05.306.306 0 0 0-.1.144.662.662 0 0 0-.034.224.58.58 0 0 0 .035.214.299.299 0 0 0 .101.135.261.261 0 0 0 .157.048c.142 0 .227-.084.256-.252h.167a.519.519 0 0 1-.065.22.35.35 0 0 1-.146.138.464.464 0 0 1-.216.048.448.448 0 0 1-.246-.066.441.441 0 0 1-.161-.192.703.703 0 0 1-.057-.293c0-.085.01-.163.032-.233a.522.522 0 0 1 .095-.182.403.403 0 0 1 .15-.117.453.453 0 0 1 .191-.04zm.603.03h.166v1.046H15.4zm1.443 0h.166v1.046h-.166zm-5.05.618c-.08 0-.2.204-.356.611-.155.407-.308.977-.459 1.71.281-.312.509-.662.683-1.05.175-.387.262-.72.262-.999a.455.455 0 0 0-.036-.197c-.025-.05-.056-.075-.093-.075zm4.662 1.797c-.221 0-.431.188-.629.563-.197.376-.296.722-.296 1.038 0 .12.029.216.088.29a.273.273 0 0 0 .223.111c.221 0 .43-.188.625-.565.196-.377.294-.725.294-1.043a.457.457 0 0 0-.083-.29.269.269 0 0 0-.222-.104zm-2.848.007c-.146 0-.285.11-.417.333-.133.222-.2.51-.2.866.566-.159.849-.452.849-.881 0-.212-.077-.318-.232-.318Z"
     id="path1" />
  <path
     style="fill:#c87137;stroke-width:0.0310479"
     d="M 11.906856,18.421844 C 10.886145,18.321804 10.118168,18.17074 9.5627426,17.960748 9.0219566,17.756291 8.8070709,17.572784 8.5931019,17.132699 8.0750562,16.067197 7.8486624,14.180565 8.0412673,12.534035 8.2273209,10.943511 8.7711344,9.5454411 9.5969443,8.5346031 9.8136092,8.269393 10.420734,7.6813383 10.758085,7.4099339 11.83758,6.541464 13.179703,5.9116231 14.483829,5.6614908 c 0.56089,-0.1075791 1.512814,-0.1356005 2.049159,-0.06032 1.292375,0.1813947 2.341083,0.7250861 3.149804,1.6329822 0.603034,0.6769853 0.997209,1.5149784 1.185083,2.5194138 0.0666,0.3560812 0.09143,1.3289322 0.04431,1.7362402 -0.07232,0.625083 -0.245323,1.325501 -0.473043,1.915109 l -0.122912,0.318241 -0.11413,7.3e-5 c -0.107367,6.9e-5 -0.12149,0.01221 -0.238322,0.204902 -0.15303,0.252392 -0.430659,0.51572 -0.61994,0.588007 -0.07816,0.02985 -0.14894,0.04745 -0.15728,0.03911 -0.0083,-0.0083 0.0068,-0.07672 0.03368,-0.15196 0.02686,-0.07524 0.05682,-0.229235 0.06658,-0.342215 0.0157,-0.18181 0.01012,-0.213033 -0.04851,-0.271669 -0.07939,-0.07939 -0.330955,-0.09167 -0.463652,-0.02263 -0.251041,0.130617 -0.467089,0.624453 -0.396403,0.906088 0.01181,0.04706 0.0716,0.131477 0.132874,0.187598 l 0.111399,0.102038 -0.088,0.117714 c -0.128043,0.171271 -0.630901,0.685333 -0.772038,0.78924 -0.233576,0.171962 -0.391525,0.09406 -0.390743,-0.192729 5.85e-4,-0.214857 0.04874,-0.417209 0.295673,-1.242458 0.110349,-0.368784 0.200634,-0.679651 0.200634,-0.690815 0,-0.01116 -0.05239,-0.02015 -0.11643,-0.01996 -0.08271,2.37e-4 -0.20609,0.05 -0.425982,0.171814 l -0.309553,0.171479 -0.05457,-0.07091 c -0.03001,-0.039 -0.05488,-0.0808 -0.05526,-0.09289 -0.0014,-0.04333 -0.267078,-0.177022 -0.391328,-0.196887 -0.162215,-0.02593 -0.460355,0.04918 -0.698043,0.175866 -0.522391,0.278432 -0.984898,0.860363 -1.091666,1.373545 -0.03515,0.168946 -0.05481,0.197758 -0.27856,0.408247 -0.132408,0.12456 -0.306028,0.258078 -0.385823,0.296706 -0.309623,0.149885 -0.624596,0.10213 -0.830644,-0.125939 -0.1152,-0.127513 -0.205429,-0.357424 -0.156489,-0.398748 0.01567,-0.01323 0.1263,-0.05692 0.245834,-0.09707 0.534668,-0.179601 0.936347,-0.444049 1.082355,-0.712574 0.07716,-0.141905 0.08719,-0.189004 0.07639,-0.358678 -0.0096,-0.151291 -0.03101,-0.219674 -0.09483,-0.303347 -0.133012,-0.174388 -0.272139,-0.225432 -0.614443,-0.225432 -0.273049,0 -0.312266,0.0081 -0.51229,0.105511 -0.494893,0.241067 -0.933056,0.862277 -1.023945,1.451706 -0.0165,0.106981 -0.05531,0.162984 -0.227235,0.327908 -0.322974,0.309815 -0.57451,0.458989 -0.773939,0.458989 -0.108682,0 -0.274237,-0.178206 -0.319024,-0.343402 -0.02266,-0.08356 -0.03183,-0.254896 -0.02329,-0.435113 l 0.01408,-0.297272 0.239321,-0.277113 c 0.461957,-0.534903 0.777697,-1.077739 0.937718,-1.612171 0.07194,-0.240276 0.08414,-0.338907 0.08702,-0.703886 0.003,-0.386041 -0.0026,-0.432404 -0.06203,-0.512289 -0.03596,-0.04831 -0.08926,-0.09253 -0.118447,-0.09826 -0.02918,-0.0057 -0.253855,0.06327 -0.49927,0.153344 l -0.446209,0.163771 -0.185086,0.389994 c -0.63062,1.328782 -0.9824867,2.875534 -0.796567,3.501593 0.15409,0.518876 0.592204,0.733963 1.128564,0.554053 0.194405,-0.06521 0.626591,-0.347846 0.881496,-0.576474 0.138876,-0.124561 0.178525,-0.147134 0.178525,-0.101639 0,0.110972 0.160852,0.380817 0.300027,0.503324 0.191274,0.168366 0.397013,0.233722 0.724552,0.230167 0.431512,-0.0047 0.798931,-0.18017 1.248494,-0.596303 0.162476,-0.150395 0.179711,-0.159326 0.179733,-0.09314 4e-5,0.121367 0.169067,0.43977 0.289667,0.545657 0.217311,0.190802 0.544449,0.20124 0.841995,0.02687 0.145927,-0.08552 0.433122,-0.365582 0.601695,-0.586753 l 0.113966,-0.149526 0.02308,0.225794 c 0.02638,0.258085 0.121508,0.474409 0.249507,0.567398 0.112623,0.08182 0.362732,0.08009 0.552431,-0.0038 0.301102,-0.133192 1.188987,-0.975939 1.455852,-1.381841 0.124349,-0.189135 0.144939,-0.20594 0.307826,-0.251237 0.09601,-0.0267 0.199123,-0.05797 0.229141,-0.0695 0.04149,-0.01593 0.02778,0.02641 -0.05713,0.176509 -0.13492,0.238503 -0.237867,0.478704 -0.306308,0.714686 -0.04538,0.156462 -0.09386,0.220446 -0.442872,0.584522 -0.599199,0.625053 -1.045001,0.948219 -1.825246,1.32314 -0.824684,0.396275 -1.820716,0.654532 -2.918499,0.756726 -0.311071,0.02896 -1.648397,0.03684 -1.909444,0.01126 z m 2.207631,-5.872001 c 0.06213,-0.06954 0.08991,-0.133516 0.08991,-0.207075 0,-0.163595 -0.103251,-0.259071 -0.355947,-0.329141 -0.250602,-0.06949 -0.327552,-0.127387 -0.276791,-0.208259 0.08307,-0.132352 0.338892,-0.115584 0.375555,0.02462 0.01201,0.04593 0.04258,0.06135 0.121681,0.06135 0.09934,0 0.104458,-0.0051 0.08583,-0.08538 -0.03435,-0.148074 -0.10091,-0.22145 -0.23317,-0.257064 -0.171959,-0.0463 -0.355374,-0.01052 -0.469701,0.09163 -0.07638,0.06824 -0.09422,0.108672 -0.09422,0.213551 0,0.194104 0.08683,0.269829 0.396153,0.345509 0.179719,0.04397 0.233272,0.08075 0.233272,0.160186 0,0.07634 -0.09207,0.121482 -0.247785,0.121482 -0.109327,0 -0.135279,-0.01336 -0.180567,-0.09295 -0.03856,-0.06776 -0.07603,-0.093 -0.138271,-0.09314 -0.07101,-1.63e-4 -0.08538,0.01321 -0.08538,0.07946 0,0.208886 0.143171,0.297306 0.461188,0.284821 0.213237,-0.0084 0.234271,-0.01561 0.318241,-0.109593 z m 0.976308,0.01678 c 0.0738,-0.06814 0.115297,-0.138708 0.127798,-0.217336 0.01805,-0.113562 0.01613,-0.116429 -0.07811,-0.116429 -0.07638,0 -0.100574,0.01578 -0.115522,0.07534 -0.03011,0.119951 -0.116668,0.178404 -0.247814,0.167342 -0.303614,-0.02561 -0.354843,-0.580365 -0.06823,-0.738814 0.07649,-0.04228 0.09427,-0.04223 0.170764,4.99e-4 0.04696,0.02623 0.103608,0.08561 0.125885,0.131954 0.03048,0.0634 0.06314,0.08425 0.131954,0.08425 0.107522,0 0.116364,-0.04678 0.03947,-0.208819 -0.03512,-0.074 -0.09303,-0.128181 -0.178526,-0.167012 -0.163628,-0.07432 -0.247907,-0.07326 -0.409832,0.0051 -0.175197,0.08481 -0.260052,0.254887 -0.260052,0.521223 0,0.233377 0.05177,0.368018 0.184448,0.479654 0.08389,0.07059 0.129056,0.08393 0.284108,0.08393 0.16488,0 0.195909,-0.01066 0.293649,-0.100905 z m 2.590964,0.02329 c 0,-0.05405 -0.01697,-0.07762 -0.05589,-0.07762 -0.110958,0 -0.130401,-0.06342 -0.130401,-0.425356 v -0.350841 h 0.09314 c 0.08279,0 0.09314,-0.01035 0.09314,-0.09314 0,-0.0828 -0.01035,-0.09314 -0.09314,-0.09314 -0.08969,0 -0.09314,-0.0052 -0.09314,-0.139715 0,-0.134541 -0.0035,-0.139716 -0.09314,-0.139716 -0.08969,0 -0.09314,0.0052 -0.09314,0.139716 0,0.129295 -0.0059,0.139715 -0.07968,0.139715 -0.06861,0 -0.07832,0.01187 -0.06986,0.08538 0.007,0.06113 0.02966,0.0882 0.07968,0.0953 0.06846,0.0097 0.06986,0.0182 0.06986,0.42469 0,0.480741 0.0145,0.512348 0.235077,0.512348 0.125965,0 0.137497,-0.0065 0.137497,-0.07762 z M 15.570505,12.093148 V 11.54981 h -0.09314 -0.09314 v 0.543338 0.543337 h 0.09314 0.09314 z m 0.43467,0.331414 c 0,-0.183385 0.01,-0.221323 0.0743,-0.281728 l 0.0743,-0.0698 0.169276,0.273966 c 0.160238,0.259338 0.175555,0.274493 0.286882,0.283848 0.14382,0.01209 0.145169,0.01689 -0.108394,-0.385593 L 16.311621,11.94378 16.4844,11.769179 c 0.09503,-0.09603 0.17278,-0.184676 0.17278,-0.196988 0,-0.01231 -0.04508,-0.02238 -0.100175,-0.02238 -0.08279,0 -0.139374,0.03894 -0.326003,0.22432 l -0.225827,0.22432 V 11.57232 11.146189 h -0.09314 -0.09314 v 0.745148 0.745149 h 0.09314 0.09314 z m 1.024579,-0.331414 V 11.54981 h -0.09314 -0.09314 v 0.543338 0.543337 h 0.09314 0.09314 z m -1.459249,-0.822769 c 0,-0.117292 -0.0052,-0.124191 -0.09314,-0.124191 -0.08797,0 -0.09314,0.0069 -0.09314,0.124191 0,0.117292 0.0052,0.124192 0.09314,0.124192 0.08797,0 0.09314,-0.0069 0.09314,-0.124192 z m 1.459249,0 c 0,-0.117292 -0.0052,-0.124191 -0.09314,-0.124191 -0.08797,0 -0.09314,0.0069 -0.09314,0.124191 0,0.117292 0.0052,0.124192 0.09314,0.124192 0.08797,0 0.09314,-0.0069 0.09314,-0.124192 z"
     id="path2" />
  <path
     style="fill:#c87137;stroke-width:0.0109771"
     d="m 15.748123,15.968154 c -0.08702,-0.0328 -0.164703,-0.128936 -0.194426,-0.240592 -0.03139,-0.117895 -0.01221,-0.364449 0.04566,-0.587178 0.03936,-0.151497 0.09391,-0.293139 0.187155,-0.485985 0.202267,-0.418317 0.419187,-0.640228 0.641367,-0.656125 0.136055,-0.0097 0.220859,0.04101 0.281327,0.168338 0.0316,0.06654 0.03981,0.09845 0.04444,0.172755 0.0065,0.104184 -0.01074,0.275299 -0.04224,0.419315 -0.05547,0.253581 -0.222951,0.646103 -0.370629,0.86862 -0.147257,0.221882 -0.316871,0.346825 -0.478101,0.352186 -0.0427,0.0014 -0.09425,-0.0037 -0.114557,-0.01133 z"
     id="path3" />
  <path
     style="fill:#c87137;stroke-width:0.0109771"
     d="m 13.005781,15.030364 c 0.01323,-0.298559 0.09304,-0.556767 0.238798,-0.772612 0.06366,-0.09427 0.159406,-0.186431 0.230465,-0.221841 0.07476,-0.03725 0.175965,-0.04029 0.240779,-0.0072 0.153453,0.07829 0.158491,0.436916 0.0097,0.688094 -0.0787,0.132825 -0.263077,0.284898 -0.443635,0.365909 -0.08068,0.0362 -0.252218,0.09861 -0.27103,0.09861 -0.0081,0 -0.0096,-0.04699 -0.005,-0.150935 z"
     id="path4" />
  <path
     style="fill:#3499cd;stroke-width:0.0109771;fill-opacity:1"
     d="m 10.993544,14.472603 c 0,-0.0034 0.02253,-0.108358 0.05008,-0.233263 0.06976,-0.316335 0.168283,-0.705961 0.239249,-0.946098 0.169268,-0.57278 0.374408,-1.030927 0.485283,-1.0838 0.03353,-0.01599 0.03858,-0.01585 0.06548,0.0018 0.01603,0.01051 0.0398,0.04215 0.05282,0.07032 0.02118,0.04583 0.02358,0.06912 0.02277,0.22136 -6.95e-4,0.130756 -0.0065,0.196226 -0.02494,0.282807 -0.10914,0.511636 -0.394982,1.087909 -0.773094,1.558598 -0.101048,0.125788 -0.117652,0.143896 -0.117652,0.128306 z"
     id="path5" />
  <path
     style="fill:#3499cd;fill-opacity:1;stroke-width:0.0219542"
     d="M 4.4457166,18.340813 C 3.8268742,18.288179 3.4505666,18.218618 3.0210249,18.077457 2.3602487,17.860305 1.8699023,17.559672 1.4260342,17.099563 -0.08013306,15.538284 -0.42697468,13.34469 0.61373717,11.962203 1.023777,11.417504 1.6237489,11.044886 2.3448288,10.887091 c 0.2677026,-0.05858 0.807448,-0.07878 1.1385002,-0.0426 0.930059,0.101632 1.8993805,0.560454 2.699364,1.277725 0.6886584,0.617457 1.0809311,1.403452 1.2528006,2.510232 0.039428,0.253903 0.048002,0.406633 0.049301,0.878166 0.00167,0.606999 -0.018357,0.844708 -0.1096322,1.301148 -0.1063984,0.532066 -0.2495534,0.887838 -0.4141549,1.029269 -0.2324034,0.199688 -0.763946,0.370335 -1.4218108,0.456461 -0.2559831,0.03351 -0.9060274,0.05927 -1.0934804,0.04332 z"
     id="path6" />
  <path
     style="fill:#040b0e;fill-opacity:1;stroke-width:0.0219542"
     d="m 10.555,16.561028 c -0.180558,-0.06393 -0.374651,-0.281723 -0.455637,-0.511262 -0.07864,-0.222886 -0.07899,-0.69308 -8.57e-4,-1.148517 0.118597,-0.691307 0.449772,-1.685087 0.821766,-2.465931 l 0.136576,-0.286684 0.432129,-0.158337 c 0.237672,-0.08709 0.453641,-0.158037 0.479933,-0.157671 0.06213,8.63e-4 0.125439,0.08307 0.160549,0.20847 0.04758,0.169924 0.01771,0.720821 -0.05359,0.988696 -0.151061,0.567483 -0.495163,1.155557 -1.043661,1.783626 l -0.158045,0.180972 -0.01217,0.307509 c -0.015,0.378835 0.01968,0.542007 0.144941,0.682026 0.123706,0.13828 0.312243,0.153348 0.539826,0.04314 0.11941,-0.05782 0.409402,-0.292593 0.573815,-0.464546 0.125854,-0.131626 0.134401,-0.147364 0.147423,-0.271452 0.06303,-0.600698 0.602275,-1.295822 1.152793,-1.486039 0.205802,-0.07111 0.536213,-0.07064 0.695736,9.98e-4 0.464718,0.208682 0.45627,0.757088 -0.01714,1.11296 -0.170939,0.128497 -0.548673,0.312798 -0.85661,0.417951 l -0.237084,0.08096 0.01405,0.06831 c 0.02545,0.123698 0.120743,0.308379 0.2033,0.393995 0.127574,0.1323 0.229094,0.174764 0.443424,0.185475 0.313453,0.01566 0.479226,-0.06524 0.83797,-0.408952 l 0.198333,-0.190024 0.05091,-0.201413 c 0.168082,-0.664933 0.734369,-1.2705 1.393604,-1.490268 0.16602,-0.05535 0.398738,-0.0534 0.527146,0.0044 0.114204,0.05141 0.226076,0.155887 0.280482,0.261935 l 0.03783,0.07373 0.338785,-0.185897 c 0.260781,-0.143095 0.358402,-0.185897 0.423986,-0.185897 0.07088,0 0.08327,0.0065 0.07371,0.03842 -0.449387,1.502703 -0.480029,1.621523 -0.483123,1.873385 -0.0028,0.22406 0.0268,0.296386 0.133115,0.32574 0.09313,0.02571 0.195052,-0.0018 0.306121,-0.08275 0.157105,-0.114449 0.59273,-0.560977 0.742067,-0.76064 l 0.147732,-0.197517 -0.05005,-0.033 c -0.231465,-0.152617 -0.283843,-0.300234 -0.203097,-0.572382 0.0778,-0.262231 0.230736,-0.476523 0.392727,-0.550299 0.04908,-0.02235 0.1394,-0.04021 0.204765,-0.04048 0.100325,-4.14e-4 0.126069,0.0086 0.181121,0.06369 0.05659,0.05659 0.06417,0.07966 0.06417,0.195132 0,0.07695 -0.02367,0.21119 -0.05739,0.325512 -0.03156,0.107006 -0.06264,0.212945 -0.06906,0.235422 -0.01031,0.03606 -0.0029,0.03905 0.06287,0.02544 0.116532,-0.02411 0.302332,-0.114384 0.419807,-0.203972 0.127369,-0.09713 0.319325,-0.332238 0.418089,-0.512069 0.06922,-0.126035 0.07314,-0.129126 0.164218,-0.129381 0.05132,-1.43e-4 0.09331,0.0057 0.09331,0.01292 0,0.03229 -0.268823,0.570681 -0.393888,0.78887 -0.256942,0.448259 -0.840746,1.285708 -0.873478,1.252976 -0.03487,-0.03487 0.188875,-0.56055 0.354463,-0.832782 0.05749,-0.09451 0.09966,-0.176704 0.09372,-0.182649 -0.0059,-0.0059 -0.06095,0.01076 -0.122232,0.03713 -0.06128,0.02636 -0.178325,0.06527 -0.260093,0.08646 l -0.148669,0.03853 -0.120748,0.177594 c -0.179361,0.263801 -0.350393,0.460123 -0.664379,0.762618 -0.342672,0.330132 -0.624595,0.560842 -0.779957,0.638273 -0.165854,0.08266 -0.380065,0.09601 -0.506413,0.03155 -0.176336,-0.08996 -0.259968,-0.287513 -0.28569,-0.674849 l -0.01386,-0.208744 -0.109771,0.149974 c -0.394674,0.539219 -0.722817,0.775909 -1.075706,0.775909 -0.249847,0 -0.446815,-0.145696 -0.583392,-0.431533 -0.03552,-0.07433 -0.0708,-0.180536 -0.0784,-0.236007 -0.0076,-0.05547 -0.01812,-0.100855 -0.02337,-0.100855 -0.0053,0 -0.08047,0.06421 -0.167161,0.142685 -0.528976,0.478884 -0.876092,0.638266 -1.354112,0.621752 -0.203752,-0.007 -0.247658,-0.01603 -0.378124,-0.07742 -0.253998,-0.119512 -0.442251,-0.340972 -0.523354,-0.615671 -0.01515,-0.05132 -0.03175,-0.09331 -0.03688,-0.09331 -0.0051,0 -0.09495,0.07298 -0.1996,0.162166 -0.388992,0.33154 -0.708782,0.529245 -0.963288,0.595535 -0.157469,0.04102 -0.405918,0.03929 -0.527224,-0.0037 z m 5.471534,-0.608924 c 0.238175,-0.112928 0.469259,-0.464723 0.641011,-0.975854 0.06673,-0.198577 0.08027,-0.272411 0.08937,-0.487339 0.0097,-0.227905 0.006,-0.262532 -0.03622,-0.345325 -0.05626,-0.110278 -0.140828,-0.158788 -0.276817,-0.158788 -0.18462,0 -0.352374,0.126669 -0.531902,0.401633 -0.336382,0.515199 -0.488271,1.24105 -0.311612,1.489144 0.09458,0.13282 0.248971,0.160546 0.426169,0.07653 z m -2.597413,-0.927696 c 0.267101,-0.160783 0.412974,-0.403059 0.412974,-0.685891 0,-0.188944 -0.03158,-0.280355 -0.11106,-0.321455 -0.198915,-0.102863 -0.443995,0.06552 -0.603973,0.414954 -0.08495,0.185565 -0.118226,0.326876 -0.133948,0.568902 l -0.01395,0.214794 0.162529,-0.05806 c 0.08939,-0.03193 0.218736,-0.09189 0.287432,-0.133244 z m -2.29794,-0.671878 c 0.275038,-0.34358 0.551587,-0.843186 0.677496,-1.223945 0.17615,-0.53269 0.158109,-0.985049 -0.03733,-0.935997 -0.17324,0.04348 -0.516477,0.978204 -0.73873,2.011751 -0.02467,0.114711 -0.04991,0.230793 -0.0561,0.257961 -0.01933,0.08488 0.02276,0.055 0.154664,-0.10977 z"
     id="path7" />
  <path
     style="fill:#040b0e;fill-opacity:1;stroke-width:0.00390625"
     d=""
     id="path8" />
  <path
     style="fill:#f89939;fill-opacity:1;stroke-width:0.015625"
     d="m 12.1875,18.420181 c -0.346245,-0.0092 -0.520148,-0.02533 -1.007786,-0.09371 C 10.054216,18.168643 9.2609885,17.908259 8.911496,17.581908 8.5525359,17.246717 8.2139978,16.264056 8.0714925,15.143664 7.8376244,13.304968 8.0646362,11.500813 8.7177226,10.007812 8.929687,9.5232472 9.2096858,9.04989 9.5356797,8.625 9.6587758,8.4645606 10.367991,7.7532959 10.614852,7.5427097 c 1.04101,-0.8880414 2.458907,-1.5837261 3.77627,-1.8528102 0.48404,-0.09887 1.177696,-0.1450853 1.72179,-0.1147157 1.406998,0.078534 2.664333,0.6591997 3.530338,1.6303892 0.559835,0.627832 0.933391,1.3515437 1.143982,2.216302 0.108167,0.4441714 0.132913,0.711615 0.133005,1.4375 6.4e-5,0.49689 -0.0036,0.578295 -0.03493,0.78125 -0.104487,0.676319 -0.270182,1.297384 -0.506489,1.898437 l -0.06757,0.171875 -0.100934,0.0078 c -0.05551,0.0043 -0.10993,0.01363 -0.120925,0.02074 -0.01099,0.0071 -0.07014,0.08797 -0.131442,0.179687 -0.195546,0.292596 -0.470414,0.54361 -0.660864,0.603514 -0.04834,0.0152 -0.09192,0.02362 -0.09684,0.0187 -0.0049,-0.0049 0.0095,-0.0736 0.03215,-0.152614 0.02261,-0.07902 0.04924,-0.221753 0.05919,-0.317196 0.01607,-0.154134 0.01516,-0.1797 -0.0081,-0.228709 -0.03882,-0.08181 -0.104411,-0.113313 -0.251898,-0.120997 -0.06894,-0.0036 -0.15493,0.0015 -0.191092,0.01122 -0.238343,0.06437 -0.476723,0.470056 -0.478173,0.813781 -6.03e-4,0.142979 0.02088,0.189322 0.150173,0.323969 l 0.09367,0.09755 -0.09215,0.120709 c -0.125167,0.163964 -0.680717,0.722128 -0.788914,0.792627 -0.312983,0.203932 -0.425124,-0.06021 -0.275213,-0.648238 0.0297,-0.116504 0.136787,-0.493671 0.23797,-0.838149 0.101182,-0.344478 0.179627,-0.637633 0.174323,-0.651456 -0.01285,-0.0335 -0.139913,-0.0337 -0.240548,-3.77e-4 -0.04112,0.01361 -0.187265,0.08569 -0.324765,0.160156 -0.1375,0.07447 -0.259391,0.1354 -0.270869,0.1354 -0.01148,0 -0.05027,-0.04219 -0.0862,-0.09375 -0.05321,-0.07635 -0.0859,-0.104556 -0.17617,-0.151974 -0.16785,-0.08817 -0.266758,-0.109241 -0.422202,-0.08993 -0.34011,0.04226 -0.691686,0.225215 -1.000942,0.520867 -0.300897,0.287659 -0.519675,0.641377 -0.614069,0.99282 -0.0263,0.09792 -0.06099,0.196358 -0.07709,0.21875 -0.05511,0.07664 -0.321119,0.32499 -0.449784,0.419919 -0.189309,0.139672 -0.268506,0.166785 -0.488607,0.167271 -0.167611,3.71e-4 -0.185988,-0.0027 -0.273437,-0.04557 -0.129814,-0.06364 -0.241231,-0.179818 -0.310424,-0.323676 -0.03122,-0.06491 -0.05676,-0.139276 -0.05676,-0.165262 0,-0.05356 -0.0251,-0.04024 0.304688,-0.161733 0.557458,-0.20537 0.916636,-0.457796 1.05661,-0.742572 0.04969,-0.101099 0.05269,-0.116462 0.05152,-0.263761 -0.0016,-0.198564 -0.0316,-0.292798 -0.127078,-0.398995 -0.131991,-0.146805 -0.264205,-0.187101 -0.613895,-0.187101 -0.241199,0 -0.314377,0.01602 -0.499849,0.109396 -0.467367,0.235308 -0.876638,0.794375 -0.999111,1.364792 -0.01817,0.08463 -0.04271,0.172522 -0.05452,0.195313 -0.02747,0.05298 -0.330835,0.347899 -0.457045,0.444322 -0.214829,0.164125 -0.433631,0.250768 -0.542519,0.214832 -0.07132,-0.02354 -0.18939,-0.15248 -0.240586,-0.262748 -0.03801,-0.08188 -0.04198,-0.109386 -0.04748,-0.329049 -0.0033,-0.131838 -0.0012,-0.290041 0.0047,-0.351563 l 0.01071,-0.111858 0.180677,-0.210937 c 0.21657,-0.252844 0.406655,-0.504485 0.545656,-0.72236 0.141303,-0.221483 0.335457,-0.623285 0.409737,-0.847953 0.103975,-0.314481 0.11454,-0.389206 0.117081,-0.828125 0.0025,-0.437917 -0.0019,-0.460237 -0.111233,-0.556208 -0.04692,-0.0412 -0.06394,-0.04721 -0.111939,-0.03953 -0.06479,0.01036 -0.41455,0.126893 -0.710185,0.23662 l -0.201242,0.07469 -0.101045,0.212527 C 10.472355,13.297453 10.188574,14.158731 10.053097,15 c -0.04081,0.253445 -0.056585,0.706058 -0.03033,0.870584 0.04168,0.26125 0.184133,0.511079 0.360049,0.631464 0.180564,0.123565 0.462954,0.164686 0.703125,0.102388 0.228453,-0.05926 0.60716,-0.28817 0.945313,-0.571401 0.103125,-0.08638 0.192773,-0.157269 0.199219,-0.157541 0.0064,-2.72e-4 0.01172,0.01671 0.01172,0.03773 0,0.05262 0.104666,0.250226 0.194093,0.366443 0.129839,0.168735 0.30604,0.276969 0.527341,0.323928 0.159552,0.03386 0.505498,0.02173 0.675478,-0.02367 0.263872,-0.07049 0.571155,-0.260538 0.898156,-0.5555 0.07205,-0.06499 0.136167,-0.118169 0.142474,-0.118169 0.0063,0 0.01544,0.02963 0.0203,0.06584 0.01031,0.07687 0.126764,0.315538 0.206139,0.422469 0.186687,0.251501 0.554149,0.311095 0.884869,0.143506 0.147669,-0.07483 0.436684,-0.346241 0.634898,-0.596228 0.05603,-0.07066 0.107919,-0.124741 0.115312,-0.120172 0.0074,0.0046 0.01344,0.0351 0.01344,0.06784 0,0.100186 0.04526,0.325889 0.08492,0.423492 0.05158,0.126928 0.123399,0.222129 0.201216,0.266711 0.05852,0.03353 0.08357,0.03739 0.237305,0.0366 0.140054,-7.24e-4 0.188426,-0.0074 0.261272,-0.03611 0.190359,-0.07501 0.557002,-0.377328 0.981399,-0.809233 0.277996,-0.282914 0.411401,-0.436913 0.52674,-0.608056 0.100307,-0.148837 0.150975,-0.184542 0.350398,-0.246922 0.0968,-0.03028 0.177629,-0.05344 0.179609,-0.05145 0.002,0.002 -0.06127,0.133468 -0.140558,0.292195 -0.08442,0.168999 -0.172135,0.372771 -0.211669,0.491719 -0.08686,0.261355 -0.128828,0.31978 -0.507596,0.706729 -0.455905,0.46575 -0.754909,0.711005 -1.172457,0.961698 -0.918959,0.551735 -1.932,0.88316 -3.212451,1.050979 -0.252637,0.03311 -0.388768,0.04117 -0.796875,0.0472 -0.270703,0.004 -0.558984,0.0089 -0.640625,0.01096 -0.08164,0.002 -0.310156,-5.91e-4 -0.507812,-0.0058 z m 1.724227,-5.76298 c 0.103732,-0.01201 0.120933,-0.01913 0.177644,-0.07353 0.180488,-0.173127 0.156126,-0.399112 -0.05471,-0.507547 -0.0325,-0.01672 -0.135408,-0.05523 -0.228681,-0.08559 -0.238231,-0.07753 -0.286408,-0.132557 -0.188328,-0.215087 0.101332,-0.08526 0.239001,-0.06544 0.314165,0.04523 0.04487,0.06607 0.09563,0.08645 0.18329,0.07358 0.04001,-0.0059 0.04896,-0.01438 0.04896,-0.04657 0,-0.07594 -0.03883,-0.167774 -0.09446,-0.223407 -0.130334,-0.130333 -0.437359,-0.132863 -0.605016,-0.005 -0.08173,0.06234 -0.112898,0.125059 -0.112965,0.227335 -1.33e-4,0.201422 0.06607,0.264064 0.374087,0.353994 0.18168,0.05304 0.240754,0.08811 0.247847,0.147123 0.01,0.08287 -0.09626,0.129406 -0.269748,0.118189 -0.07123,-0.0046 -0.08169,-0.01065 -0.130379,-0.07532 -0.05951,-0.07905 -0.125217,-0.11462 -0.184326,-0.09978 -0.05119,0.01285 -0.06885,0.0609 -0.05341,0.14531 0.03512,0.192054 0.218567,0.262451 0.576036,0.22105 z m 1.07038,-0.0068 c 0.06624,-0.02768 0.156236,-0.106933 0.197809,-0.174199 0.0361,-0.05841 0.06401,-0.198095 0.04556,-0.227959 -0.01522,-0.02463 -0.146613,-0.02478 -0.17623,-1.97e-4 -0.01251,0.01038 -0.02741,0.03749 -0.03312,0.06025 -0.03838,0.15293 -0.225507,0.209323 -0.358354,0.107995 -0.12929,-0.09861 -0.16749,-0.339679 -0.08164,-0.515161 0.04929,-0.100743 0.143969,-0.182404 0.211371,-0.182308 0.06215,9e-5 0.13313,0.05152 0.204552,0.148198 l 0.06477,0.08768 0.08096,-0.0047 c 0.08022,-0.0046 0.08101,-0.0052 0.08551,-0.05937 0.0064,-0.0773 -0.06674,-0.214368 -0.146369,-0.274247 -0.08783,-0.06604 -0.224611,-0.107045 -0.319562,-0.0958 -0.08635,0.01023 -0.22129,0.07315 -0.286163,0.133445 -0.143376,0.133255 -0.195174,0.497173 -0.10505,0.738053 0.03734,0.09981 0.135751,0.208046 0.227601,0.250336 0.07764,0.03575 0.310447,0.04053 0.388357,0.008 z m 2.698071,-0.01068 c 0.02783,-0.052 0.0041,-0.12264 -0.0447,-0.132842 -0.115154,-0.02409 -0.125674,-0.06129 -0.12678,-0.448273 L 17.507812,11.75 h 0.03711 c 0.09641,0 0.131627,-0.01744 0.141498,-0.07005 0.0053,-0.0281 0.0026,-0.06954 -0.006,-0.09208 -0.01265,-0.03328 -0.0257,-0.04099 -0.06938,-0.04099 -0.09422,0 -0.103228,-0.0096 -0.103228,-0.11003 0,-0.05008 -0.0069,-0.109097 -0.01524,-0.13114 -0.01351,-0.03552 -0.02397,-0.04008 -0.09208,-0.04008 -0.08976,0 -0.09581,0.0088 -0.09581,0.138917 0,0.10689 -0.02069,0.138978 -0.09375,0.145365 -0.05329,0.0047 -0.05465,0.0065 -0.0534,0.07033 0.0014,0.07213 0.02682,0.114134 0.06903,0.114134 0.06359,0 0.06996,0.03537 0.07856,0.435986 0.0056,0.260986 0.01441,0.395352 0.02747,0.418681 0.03645,0.06516 0.08114,0.08283 0.209404,0.08283 0.106131,0 0.123086,-0.0039 0.138189,-0.03217 z M 15.570312,12.09375 v -0.546875 h -0.09375 -0.09375 v 0.546875 0.546875 h 0.09375 0.09375 z m 0.438181,0.394531 c 9.67e-4,-0.216575 0.01592,-0.277895 0.08427,-0.345644 0.047,-0.04659 0.05966,-0.05252 0.07099,-0.03326 0.107843,0.183424 0.298893,0.465412 0.331695,0.489579 0.02565,0.0189 0.07643,0.03401 0.128906,0.03836 0.0832,0.0069 0.08659,0.0057 0.08659,-0.03072 0,-0.03488 -0.109035,-0.224036 -0.308768,-0.535654 l -0.07971,-0.124368 0.171796,-0.177341 c 0.09449,-0.09754 0.169051,-0.185712 0.165695,-0.195945 -0.0034,-0.01023 -0.0297,-0.0209 -0.05854,-0.02371 -0.117669,-0.01147 -0.148718,0.0065 -0.375469,0.217725 L 16.00782,11.970455 V 11.55554 11.140625 h -0.10157 -0.101563 v 0.75 0.75 h 0.101563 0.101562 z M 17.039062,12.09375 V 11.546875 H 16.9375 16.835937 v 0.546875 0.546875 h 0.101563 0.101562 z m -1.487545,-0.700835 c 0.01437,-0.0091 0.01891,-0.04658 0.01563,-0.128667 l -0.0046,-0.115811 h -0.08594 -0.08594 l -0.0047,0.106876 c -0.0028,0.06534 0.0025,0.115437 0.01363,0.128906 0.0198,0.02386 0.11905,0.02954 0.151912,0.0087 z m 1.462992,-0.01122 c 0.02979,-0.02979 0.03408,-0.194049 0.0058,-0.222321 -0.01031,-0.01031 -0.04758,-0.01875 -0.08281,-0.01875 -0.03523,0 -0.0725,0.0084 -0.08281,0.01875 -0.01031,0.01031 -0.01875,0.05903 -0.01875,0.108259 0,0.105301 0.02441,0.138616 0.101563,0.138616 0.02885,0 0.0635,-0.01105 0.07701,-0.02455 z"
     id="path9" />
  <path
     style="fill:#f89939;fill-opacity:1;stroke-width:0.015625"
     d="m 11.015337,14.40625 c 0.08543,-0.427936 0.286693,-1.175967 0.405695,-1.507813 0.142388,-0.397062 0.320749,-0.713392 0.389529,-0.690848 0.0097,0.0032 0.03338,0.02911 0.05272,0.05764 0.03137,0.04629 0.03516,0.07108 0.03516,0.229923 0,0.202195 -0.02478,0.341751 -0.103324,0.58186 -0.135777,0.415075 -0.392154,0.883368 -0.684948,1.251108 -0.09703,0.121862 -0.104845,0.128304 -0.09483,0.07813 z"
     id="path10" />
  <path
     style="fill:#f89939;fill-opacity:1;stroke-width:0.015625"
     d="m 15.716654,15.939679 c -0.117297,-0.0737 -0.167473,-0.189725 -0.165519,-0.38275 0.0027,-0.268218 0.09177,-0.592414 0.249566,-0.908492 0.207473,-0.415594 0.429571,-0.636126 0.643573,-0.639034 0.111912,-0.0015 0.180646,0.03767 0.243027,0.138568 0.03996,0.06464 0.04793,0.09508 0.05277,0.20156 0.0126,0.277047 -0.07291,0.613327 -0.248258,0.976411 -0.118098,0.244534 -0.21014,0.382972 -0.325848,0.490097 -0.114759,0.106246 -0.187742,0.141665 -0.306595,0.148788 -0.07312,0.0044 -0.104528,-0.0012 -0.142721,-0.02515 z"
     id="path11" />
  <path
     style="fill:#f89939;fill-opacity:1;stroke-width:0.015625"
     d="m 13.014489,15.021305 c 0.01913,-0.262869 0.06849,-0.44534 0.175583,-0.649137 0.07109,-0.135294 0.208843,-0.288544 0.294303,-0.327423 0.131573,-0.05986 0.255388,-0.02534 0.305572,0.0852 0.03354,0.07387 0.04027,0.253482 0.0138,0.368311 -0.06785,0.294295 -0.349105,0.539699 -0.763044,0.66577 l -0.03743,0.0114 z"
     id="path12" />
</svg>
